<svg width="600" height="20" viewBox="0 0 600 20" fill="none" xmlns="http://www.w3.org/2000/svg">
<path fill-rule="evenodd" clip-rule="evenodd" d="M246.384 14.1795C246.384 11.1795 244.897 9.53848 239.512 8.66661L239.512 10.7949C243.23 11.4359 244.179 12.4102 244.154 14.2564C244.128 16.0256 242.846 17.8205 238.769 17.8205C235.333 17.8205 233.359 16 232.948 13.4615H230.461C230.769 16.5897 233.384 20 238.692 20C244.102 20 246.384 16.9744 246.384 14.1795ZM231.051 5.43591C231.051 9.25638 234.512 10.3846 237.384 10.641L237.384 8.48713C235.025 8.17945 233.282 7.33335 233.282 5.4615C233.282 3.61529 235.102 2.17945 238.102 2.17945C240.794 2.17945 242.589 3.51279 243.025 5.5897H245.589C245.359 3.359 243.205 0 238.102 0C234.256 0 231.051 2.10251 231.051 5.43591ZM214 0.384725V2.61543H228.051V0.384725H214ZM228.051 8.89754H214V11.1027H228.051V8.89754ZM228.051 17.3847H214V19.6155H228.051V17.3847ZM251.333 0.384725V19.6155H249.102V0.384725H251.333ZM253.461 2.61543V0.384725H257.23C260.846 0.384725 263.153 2.64111 263.153 5.74369C263.153 8.84627 260.717 11.1027 257.23 11.1027H253.461V8.87184H257.23C259.615 8.87184 260.922 7.58985 260.922 5.74367C260.922 3.89749 259.615 2.61541 257.23 2.61541L253.461 2.61543ZM268.076 0.384725H265.845V19.6155H268.076V0.384725ZM280.461 5.74369C280.461 2.64111 278.153 0.384725 274.538 0.384725H270.204V2.61541H274.461C276.845 2.61541 278.102 4.0257 278.102 5.74367C278.102 7.48723 276.845 8.87184 274.461 8.87184H270.204V11.1027H274.538C278.025 11.1027 280.461 8.84627 280.461 5.74369ZM273.871 13.0257L278.23 19.6155H281.025L276.538 13.0257H273.871ZM283.665 0.384725H285.896V19.6155H283.665V0.384725ZM288.28 0.384725V2.61543H302.844V0.384725H288.28ZM296.691 19.6155V4.69235H294.46V19.6155H296.691Z" fill="white"/>
<path d="M57.1361 0L15.3361 17.8C11.8694 19.2667 8.95834 20 6.60278 20C3.93611 20 2.00278 19.0667 0.802778 17.2C0.0472222 16 -0.175 14.4778 0.136111 12.6333C0.447222 10.7889 1.26944 8.82222 2.60278 6.73333C3.71389 5.04444 5.53611 2.82222 8.06945 0.0666666C7.18056 1.48889 6.55834 2.95556 6.20278 4.46667C5.53611 7.31111 6.13611 9.4 8.00278 10.7333C8.89167 11.3556 10.1139 11.6667 11.6694 11.6667C12.9139 11.6667 14.3139 11.4667 15.8694 11.0667L57.1361 0Z" fill="white"/>
<path d="M335.278 18.5562L335.296 18.5205L335.314 18.5562C335.528 18.9127 335.688 19.1979 335.955 19.2335C336.205 19.18 336.258 18.9127 336.33 18.6453C336.33 18.6096 336.347 18.5918 336.347 18.5562C336.205 18.5027 336.098 18.3957 336.044 18.3423C336.027 18.3957 336.027 18.4492 336.027 18.4849C336.009 18.6275 335.991 18.6988 335.937 18.6988C335.92 18.6988 335.92 18.6988 335.902 18.6809C335.741 18.574 335.545 18.1462 335.528 18.1284V18.1105V18.0927C335.634 17.8966 335.741 17.6827 335.848 17.4866C335.955 17.2549 336.062 17.0588 336.134 16.9519L335.724 16.738C335.688 16.9162 335.599 17.1658 335.528 17.3797C335.492 17.4866 335.456 17.5758 335.438 17.6471L335.421 17.7362L335.403 17.6471C335.314 17.3262 335.242 16.5419 335.224 16.5062V16.4884H335.884L336.241 16.5062V16.1676L335.866 16.1854H335.207V15.6506H334.814C334.814 15.7041 334.832 15.8467 334.85 15.9358L334.868 16.1676H333.638L333.103 16.1854V16.5241L333.602 16.5062H334.832V16.5241C334.886 17.0054 335.028 17.861 335.135 18.164V18.1818V18.1997C334.939 18.5562 334.458 18.9483 334.315 19.0553C334.387 19.0909 334.511 19.1622 334.654 19.3048C334.743 19.1979 335.1 18.8235 335.278 18.5562Z" fill="white"/>
<path d="M334.761 18.5204V18.1996C334.333 18.36 333.567 18.4848 333.05 18.5204C333.068 18.5917 333.139 18.8056 333.192 18.9482L334.761 18.5204Z" fill="white"/>
<path d="M334.636 16.8627L334.28 16.8805H333.727L333.371 16.8627L333.389 17.1835V17.7183L333.371 18.0748L333.745 18.057H334.28L334.619 18.0748L334.601 17.6648V17.1835L334.636 16.8627ZM334.298 17.7718H333.727V17.2014H334.298V17.7718Z" fill="white"/>
<path d="M335.456 15.8111L335.706 16.1141L336.009 15.9358L335.742 15.6506L335.456 15.8111Z" fill="white"/>
<path d="M336.829 19.911L336.811 19.394V15.6864L336.829 15.1873L336.312 15.2229H333.086L332.551 15.2051L332.569 15.7755V19.4475L332.551 20.0001H332.961V19.7149H336.437V19.911H336.829ZM332.961 19.3584V19.3405V15.5616H336.437V19.3584H332.961Z" fill="white"/>
<path d="M342.319 18.0036C342.426 18.7522 343.068 19.4118 343.388 19.5366C343.478 19.287 343.638 19.1266 343.727 19.0553C342.693 18.6275 342.622 17.7719 342.622 17.7719V17.754L342.64 17.7362C342.889 17.5401 343.175 17.3797 343.299 17.3262L342.889 16.9875C342.497 17.344 341.891 17.7719 341.873 17.7719L341.838 17.8075L341.82 17.7719C341.642 17.4153 341.285 17.148 341.267 17.148L341.214 17.1123L341.267 17.0767C341.374 17.0054 341.659 16.7202 341.659 16.7202L341.677 16.7023H342.568L342.889 16.7202V16.328L342.586 16.3458H340.483L340.073 16.328V16.7202L340.429 16.7023H341.107L341.035 16.7736C340.715 17.1123 340.091 17.3975 339.289 17.6114C339.431 17.7184 339.502 17.8966 339.538 17.9679C340.037 17.8075 340.893 17.344 340.911 17.344H340.929H340.946C341.053 17.3797 341.142 17.5045 341.16 17.5045L341.178 17.5401L341.125 17.5223C340.554 18.1284 339.609 18.3957 339.306 18.4849C339.431 18.5918 339.502 18.7701 339.538 18.8414C340.251 18.6096 341.303 17.8253 341.321 17.8075L341.356 17.7897L341.374 17.8253C341.392 17.8432 341.481 17.9501 341.481 18.0214V18.0392L341.463 18.0571C341.089 18.4849 340.394 19.0731 339.199 19.3405C339.342 19.4831 339.431 19.6613 339.467 19.7505C340.839 19.2514 341.552 18.467 341.552 18.467L341.606 18.3957L341.624 18.4849C341.659 18.8235 341.624 19.0731 341.481 19.2335C341.303 19.4296 341.035 19.4296 340.893 19.4296C341 19.6257 341.071 19.8396 341.089 19.9287C341.232 19.8931 341.748 19.7326 341.873 19.5009C342.052 19.18 342.105 18.6631 341.998 18.1997V18.164L342.319 17.9501V18.0036Z" fill="white"/>
<path d="M339.324 15.5437L339.342 15.8645V16.3993L339.324 16.7023H339.77V15.9358H343.175V16.6488H343.603L343.585 16.2923V15.8645L343.603 15.5437L343.228 15.5615H341.767V15.5258C341.731 15.3298 341.642 15.098 341.624 15.0089L341.143 15.098C341.214 15.2941 341.25 15.508 341.25 15.5258V15.5793H339.699L339.324 15.5437Z" fill="white"/>
<path d="M347.72 19.1978C347.72 19.3761 347.72 19.5365 347.827 19.6613C347.987 19.8217 348.362 19.8752 349.021 19.8396C350.216 19.7861 350.251 19.6969 350.447 19.1444C350.465 19.1087 350.465 19.0731 350.483 19.0374C350.287 18.9483 350.144 18.8413 350.073 18.7879C349.966 19.4474 349.645 19.4474 349.057 19.4652H348.986C348.95 19.4652 348.897 19.4652 348.861 19.4652C348.79 19.4652 348.736 19.4652 348.683 19.4652C348.344 19.4652 348.13 19.3761 348.13 18.9126V17.2371L348.683 17.0053V18.4492L348.665 18.9305H349.093L349.075 18.4492V16.8806L349.716 16.6666V17.6827C349.681 17.9857 349.592 18.0748 349.289 18.0748C349.396 18.2353 349.431 18.4314 349.449 18.5205C349.574 18.5027 350.055 18.4314 350.091 18.057C350.109 17.8609 350.126 16.2923 350.126 16.0606C350.055 16.0784 349.877 16.1675 349.752 16.221L349.075 16.4884V15.615L349.093 15.0802H348.665L348.683 15.615V16.6132L348.13 16.7914V16.221L348.148 15.7932H347.684L347.702 16.221V16.9875H347.667C347.488 17.041 347.274 17.0945 347.185 17.1123L347.292 17.5401C347.364 17.5044 347.506 17.451 347.631 17.3975L347.684 17.3618V19.1087C347.72 19.1444 347.72 19.18 347.72 19.1978Z" fill="white"/>
<path d="M347.274 18.9304V18.4848L346.74 18.7343V16.9875H346.9C347.007 16.9875 347.167 17.0053 347.239 17.0053V16.5597C347.167 16.5597 347.007 16.5775 346.918 16.5775H346.74V15.704C346.74 15.6149 346.757 15.4188 346.757 15.3297H346.33C346.33 15.401 346.348 15.5793 346.348 15.704V16.5953H346.187C346.027 16.5953 345.938 16.5953 345.813 16.5775V17.0053C345.884 17.0053 346.062 16.9875 346.187 16.9875H346.365V18.8413L346.348 18.8591C346.205 18.9304 345.991 18.9839 345.831 19.0017C345.866 19.0908 345.955 19.3048 345.991 19.5721C346.098 19.4474 346.508 19.2156 347.274 18.9304Z" fill="white"/>
<path d="M353.995 19.0197C353.995 18.8414 353.977 18.6275 353.977 18.5384L353.335 18.8414V17.4688H353.585L353.834 17.4867V17.041L353.567 17.0589H353.335V15.8467H353.692L353.906 15.8646V15.4368L353.674 15.4546H352.711L352.408 15.4368V15.8646L352.729 15.8467H352.979V17.0589H352.693L352.426 17.0232V17.4688L352.676 17.451H352.979V18.9305H352.961C352.64 19.0731 352.39 19.1266 352.319 19.1266L352.444 19.6614C353.228 19.3049 353.888 19.0553 353.995 19.0197Z" fill="white"/>
<path d="M356.918 19.8752V19.4474L356.508 19.4652H355.581V18.8235H356.258L356.633 18.8413V18.4313L356.241 18.4491H355.581V17.8431H356.223L356.651 17.8609L356.633 17.5222V15.7041L356.651 15.2584L356.205 15.2762H354.601L354.191 15.2584L354.209 15.7575V17.4866L354.191 17.8787L354.619 17.8609H355.225V18.467H354.619L354.262 18.4491V18.8413L354.636 18.8235H355.225V19.4652H354.191L353.799 19.4474V19.8752L354.191 19.8573H356.455L356.918 19.8752ZM355.599 15.6328H356.258V16.3814H355.599V15.6328ZM355.599 16.7201H356.258V17.4866H355.599V16.7201ZM355.225 17.4866H354.601V16.7201H355.225V17.4866ZM355.225 16.3636H354.601V15.6149H355.225V16.3636Z" fill="white"/>
<path d="M321 0H329.984V12.8699H321V0ZM328.683 1.30125H322.301V11.5686H328.683V1.30125V1.30125Z" fill="#FFCC00"/>
<path d="M335.884 5.77542H335.332C334.601 4.74156 333.87 3.70769 333.139 2.54905V5.77542H332.515V1.26562H333.068C333.799 2.29949 334.529 3.31553 335.242 4.47418H335.26V1.26562H335.884V5.77542Z" fill="white"/>
<path d="M337.346 3.99289C337.524 3.40466 337.702 2.85208 337.863 2.15689H337.88C338.059 2.85208 338.219 3.40466 338.38 3.99289H337.346ZM337.649 1.26562L336.098 5.7576H336.757L337.15 4.52765H338.504L338.861 5.7576H339.716L338.29 1.26562H337.649Z" fill="white"/>
<path d="M340.447 5.77542V1.87168H339.271V1.26562H342.408V1.87168H341.214V5.77542H340.447Z" fill="white"/>
<path d="M343.424 1.26562H342.658V5.7576H343.424V1.26562Z" fill="white"/>
<path d="M345.795 5.20503C344.993 5.20503 344.708 4.31376 344.708 3.45815C344.708 2.62036 345.029 1.83605 345.795 1.83605C346.561 1.83605 346.882 2.62036 346.882 3.45815C346.882 4.31376 346.597 5.20503 345.795 5.20503ZM345.795 5.84674C346.971 5.84674 347.702 4.79505 347.702 3.45815C347.702 2.19255 346.9 1.19434 345.795 1.19434C344.69 1.19434 343.888 2.19255 343.888 3.45815C343.888 4.79505 344.619 5.84674 345.795 5.84674Z" fill="white"/>
<path d="M351.535 5.77542H350.982C350.251 4.74156 349.52 3.70769 348.79 2.54905V5.77542H348.166V1.26562H348.718C349.449 2.29949 350.18 3.31553 350.893 4.47418H350.911V1.26562H351.535V5.77542V5.77542Z" fill="white"/>
<path d="M353.014 3.99289C353.192 3.40466 353.371 2.85208 353.531 2.15689H353.549C353.727 2.85208 353.888 3.40466 354.066 3.99289H353.014ZM353.299 1.26562L351.749 5.7576H352.426L352.818 4.52765H354.173L354.529 5.7576H355.385L353.959 1.26562H353.299Z" fill="white"/>
<path d="M355.599 1.26562H356.365V5.16936H357.898V5.77542H355.599V1.26562Z" fill="white"/>
<path d="M335.403 9.53644V11.3903C334.993 11.5507 334.565 11.6577 334.12 11.6577C332.8 11.6577 331.963 10.6238 331.963 9.30471C331.963 8.07477 332.8 7.00525 334.155 7.00525C334.565 7.00525 334.993 7.16568 335.243 7.34393L334.993 7.87869C334.779 7.75391 334.458 7.64696 334.173 7.64696C333.353 7.64696 332.783 8.28867 332.783 9.32254C332.783 10.3921 333.424 11.0159 334.084 11.0159C334.298 11.0159 334.458 10.9981 334.619 10.909V9.51862H335.403V9.53644Z" fill="white"/>
<path d="M338.166 7.70054H336.882V8.93049H338.148V9.53655H336.882V10.9982H338.397V11.5865H336.116V7.09448H338.166V7.70054Z" fill="white"/>
<path d="M340.536 11.0339C339.734 11.0339 339.449 10.1426 339.449 9.28701C339.449 8.46704 339.77 7.6649 340.536 7.6649C341.303 7.6649 341.624 8.44922 341.624 9.28701C341.624 10.1426 341.339 11.0339 340.536 11.0339ZM340.536 11.6756C341.713 11.6756 342.444 10.6239 342.444 9.28701C342.444 8.02141 341.642 7.02319 340.536 7.02319C339.431 7.02319 338.629 8.02141 338.629 9.28701C338.629 10.6239 339.36 11.6756 340.536 11.6756Z" fill="white"/>
<path d="M346.151 9.53644V11.3903C345.741 11.5507 345.314 11.6577 344.868 11.6577C343.549 11.6577 342.711 10.6238 342.711 9.30471C342.711 8.07477 343.549 7.00525 344.904 7.00525C345.314 7.00525 345.741 7.16568 345.991 7.34393L345.741 7.87869C345.528 7.75391 345.207 7.64696 344.922 7.64696C344.102 7.64696 343.531 8.28867 343.531 9.32254C343.531 10.3921 344.173 11.0159 344.832 11.0159C345.046 11.0159 345.207 10.9981 345.367 10.909V9.51862H346.151V9.53644Z" fill="white"/>
<path d="M347.631 7.70055H347.97C348.433 7.70055 348.683 7.96792 348.683 8.43138C348.683 9.03744 348.308 9.30482 347.952 9.32265C347.881 9.32265 347.702 9.34047 347.631 9.34047V7.70055ZM349.592 11.5865L348.683 9.7148C349.182 9.44742 349.467 8.91267 349.467 8.37791C349.467 7.50447 348.932 7.07666 348.077 7.07666H346.882V11.5686H347.649V9.87523H347.987H348.005L348.736 11.5686H349.592V11.5865Z" fill="white"/>
<path d="M350.857 9.82175C351.036 9.23352 351.214 8.68093 351.374 7.98575H351.392C351.57 8.68093 351.731 9.23352 351.891 9.82175H350.857ZM351.16 7.09448L349.61 11.5865H350.287L350.679 10.3565H352.034L352.39 11.5865H353.246L351.82 7.09448H351.16Z" fill="white"/>
<path d="M354.244 11.5865H353.478V7.09448H354.672C355.528 7.09448 356.062 7.52229 356.062 8.39573C356.062 9.16222 355.51 9.89305 354.583 9.89305H354.226V9.34047C354.262 9.34047 354.476 9.32264 354.565 9.32264C354.939 9.30482 355.296 9.03744 355.296 8.43138C355.296 7.96792 355.046 7.70054 354.583 7.70054H354.226V11.5865H354.244Z" fill="white"/>
<path d="M359.645 11.5865H358.879V9.4296H357.275V11.5865H356.508V7.09448H357.275V8.82354H358.879V7.11231H359.645V11.5865Z" fill="white"/>
<path d="M361.16 7.09448H360.394V11.5865H361.16V7.09448Z" fill="white"/>
<path d="M364.618 7.91434C364.44 7.80739 364.119 7.66479 363.834 7.66479C363.05 7.66479 362.479 8.3065 362.479 9.34036C362.479 10.4099 363.103 11.0338 363.852 11.0338C364.155 11.0338 364.422 10.9446 364.618 10.802L364.832 11.3546C364.601 11.515 364.191 11.6577 363.816 11.6577C362.497 11.6577 361.659 10.6238 361.659 9.30471C361.659 8.07477 362.479 7.00525 363.834 7.00525C364.226 7.00525 364.601 7.16568 364.868 7.34393L364.618 7.91434Z" fill="white"/>
<path d="M86.9723 10.2867C87.9151 10.3598 88.7348 10.7601 89.4352 11.4835C90.1318 12.2109 90.482 13.2076 90.482 14.4776C90.482 16.0362 89.9663 17.2792 88.9311 18.2067C87.8959 19.1303 86.4104 19.5959 84.467 19.5959H75V1.36232H84.4439C86.1141 1.36232 87.4495 1.81643 88.4577 2.72465C89.466 3.63286 89.9663 4.83741 89.9663 6.34212C89.9663 7.48509 89.6507 8.3933 89.0157 9.06292C88.3808 9.73254 87.6996 10.1058 86.9761 10.1789V10.2867H86.9723ZM79.491 8.89744H83.4087C84.0783 8.89744 84.6132 8.71272 85.0134 8.33943C85.4137 7.96613 85.6138 7.47354 85.6138 6.8578C85.6138 6.29594 85.4175 5.84183 85.0288 5.49548C84.6401 5.14912 84.1553 4.9798 83.5742 4.9798H79.491V8.89744ZM83.6819 15.9746C84.39 15.9746 84.9365 15.7937 85.329 15.432C85.7177 15.0702 85.914 14.5699 85.914 13.935C85.914 13.3346 85.7138 12.8613 85.3136 12.5072C84.9134 12.1532 84.3977 11.9761 83.7627 11.9761H79.491V15.9746H83.6819ZM106.072 19.5921H101.719V18.2875C100.63 19.4304 99.2331 20 97.5283 20C95.9312 20 94.6497 19.4766 93.6761 18.4337C92.7063 17.3908 92.2214 16.0169 92.2214 14.3121V5.93419H96.547V13.3885C96.547 14.1851 96.7663 14.8355 97.2012 15.3358C97.6361 15.8361 98.1979 16.0824 98.8868 16.0824C99.7758 16.0824 100.468 15.7706 100.969 15.1434C101.469 14.5161 101.715 13.5617 101.715 12.2725V5.93419H106.068V19.5921H106.072ZM119.479 19.5921H107.954V18.7724L113.372 9.39003H108.088V5.93419H119.414V6.7539L113.995 16.1362H119.479V19.5921ZM132.887 19.5921H121.361V18.7724L126.78 9.39003H121.492V5.93419H132.818V6.7539L127.399 16.1362H132.883V19.5921H132.887ZM139.36 9.14374H147.234V13.0614H139.36V19.5921H134.869V1.36232H147.957V5.30691H139.36V9.14374ZM179.133 13.8772H169.119C169.377 15.5705 170.643 16.5172 172.56 16.5172C174.068 16.5172 175.558 15.9246 176.674 15.0664L178.344 17.9604C176.816 19.2727 174.834 20 172.56 20C167.98 20 164.848 17.2099 164.848 12.7612C164.848 10.6561 165.548 8.92438 166.941 7.56205C168.338 6.19973 170.051 5.52242 172.083 5.52242C174.061 5.52242 175.719 6.18434 177.062 7.50818C178.405 8.83202 179.094 10.583 179.129 12.7612V13.8772H179.133ZM170.316 9.63248C169.774 10.0135 169.4 10.5407 169.2 11.2103H174.834C174.634 10.5022 174.292 9.96729 173.799 9.60554C173.31 9.24379 172.737 9.06292 172.086 9.06292C171.451 9.06292 170.863 9.25149 170.316 9.63248ZM163.212 13.8772H153.199C153.457 15.5705 154.723 16.5172 156.639 16.5172C158.148 16.5172 159.637 15.9246 160.753 15.0664L162.423 17.9604C160.895 19.2727 158.914 20 156.639 20C152.06 20 148.927 17.2099 148.927 12.7612C148.927 10.6561 149.627 8.92438 151.021 7.56205C152.417 6.19973 154.13 5.52242 156.162 5.52242C158.14 5.52242 159.799 6.18434 161.142 7.50818C162.485 8.83202 163.174 10.583 163.208 12.7612V13.8772H163.212ZM154.396 9.63248C153.853 10.0135 153.48 10.5407 153.28 11.2103H158.914C158.713 10.5022 158.371 9.96729 157.878 9.60554C157.39 9.24379 156.816 9.06292 156.166 9.06292C155.527 9.06292 154.938 9.25149 154.396 9.63248ZM195.977 19.5921H191.625V18.503C190.516 19.4997 189.104 20 187.38 20C185.529 20 183.955 19.3227 182.658 17.9719C181.361 16.6211 180.711 14.8817 180.711 12.7612C180.711 10.6561 181.361 8.92438 182.658 7.56205C183.955 6.19973 185.529 5.52242 187.38 5.52242C189.104 5.52242 190.52 6.02271 191.625 7.01943V0H195.977V19.5921ZM190.632 15.3088C191.294 14.6469 191.625 13.8003 191.625 12.7651C191.625 11.7491 191.294 10.9063 190.632 10.2328C189.97 9.56321 189.185 9.22455 188.277 9.22455C187.314 9.22455 186.526 9.55551 185.91 10.2174C185.294 10.8794 184.986 11.726 184.986 12.7612C184.986 13.8118 185.294 14.6662 185.91 15.3204C186.526 15.9746 187.314 16.3017 188.277 16.3017C189.185 16.3017 189.97 15.9708 190.632 15.3088Z" fill="white"/>
<path d="M396.601 13.0985C390.323 13.0985 385.212 13.1589 385.212 13.2193C385.212 13.2998 390.303 13.34 396.601 13.34C402.899 13.34 407.989 13.2796 407.989 13.2193C407.989 13.1589 402.878 13.0985 396.601 13.0985Z" fill="white"/>
<path d="M404.166 10.2214H403.542L401.007 1.73039L398.371 10.2214H397.748L395.353 0.885314H395.776L398.07 9.81894H398.09L400.846 0.925556H401.208L403.864 9.81894L406.299 0.885314H406.721L404.166 10.2214ZM405.736 0C405.474 0 405.253 0.181088 405.152 0.462778L403.703 6.2978L401.872 0H400.424C400.182 0 399.961 0.160967 399.84 0.462778L398.15 6.2978L396.742 0.482899V0.462778C396.641 0.181088 396.42 0 396.158 0H393.985L396.963 11.167L397.003 11.328H399.096L400.947 5.21128L402.798 11.328H404.89L407.929 0.0201212H405.736V0ZM392.516 5.97587C392.516 7.22336 392.536 8.53121 391.53 9.53724C390.927 10.1409 390.021 10.4829 388.955 10.4829H386.198V0.865194H388.955C390.021 0.865194 390.907 1.18713 391.53 1.81087C392.536 2.81691 392.536 4.02415 392.516 5.29176V5.97587V5.97587ZM392.335 1.10664C391.611 0.382295 390.564 0 389.317 0H385.172V11.3079H389.317C390.564 11.3079 391.611 10.9256 392.335 10.2012C393.522 9.01411 393.502 7.48493 393.502 6.01611V5.21128C393.502 3.70222 393.502 2.29377 392.335 1.10664V1.10664ZM390.544 8.41048C390.202 8.83302 389.76 9.0141 389.116 9.0141H387.707V2.31389H389.116C389.76 2.31389 390.202 2.49498 390.544 2.91751C390.886 3.34005 390.967 4.00403 390.967 5.61369C390.947 7.22336 390.907 7.96782 390.544 8.41048ZM391.249 2.09256C390.705 1.5493 389.921 1.26761 388.975 1.26761H386.601V10.0403H388.955C389.921 10.0403 390.705 9.75857 391.228 9.21531C392.114 8.33 392.114 7.18311 392.094 5.95575V5.27164C392.114 4.04428 392.134 2.97787 391.249 2.09256" fill="white"/>
<path d="M386.763 18.7123L387.205 15.7748L387.93 15.6742L387.809 16.4991H388.533L388.453 17.1027H387.728L387.487 18.6721C387.467 18.7727 387.507 18.8129 387.628 18.8129C387.769 18.8129 387.95 18.7526 388.111 18.6922L388.272 19.1751C388.03 19.2958 387.728 19.3964 387.386 19.3964C386.924 19.3964 386.702 19.1349 386.763 18.7123ZM408.251 18.7123L408.694 15.7748L409.418 15.6742L409.298 16.4991H410.022L409.941 17.1027H409.217L408.976 18.6721C408.956 18.7727 408.996 18.8129 409.117 18.8129C409.257 18.8129 409.438 18.7526 409.599 18.6922L409.76 19.1751C409.519 19.2958 409.217 19.3964 408.875 19.3964C408.412 19.3964 408.191 19.1349 408.251 18.7123ZM390.686 17.324C390.686 17.3039 390.706 17.1228 390.525 17.1228C390.344 17.1228 389.942 17.3039 389.68 17.4448L389.398 19.3361H388.694L389.117 16.5393L389.72 16.4387V16.7808C390.082 16.5796 390.525 16.4186 390.867 16.4186C391.27 16.4186 391.41 16.6802 391.431 16.982C391.431 17.1027 391.431 17.1631 391.41 17.2637L391.109 19.316H390.404L390.686 17.324ZM392.537 18.5111C392.517 18.6721 392.497 18.8129 392.758 18.8129C393.06 18.8129 393.483 18.6721 393.845 18.491L394.006 19.0343C393.664 19.2355 393.141 19.4166 392.658 19.4166C391.893 19.4166 391.732 18.994 391.813 18.4105L391.934 17.5454C392.034 16.8814 392.336 16.479 393.201 16.479C393.744 16.479 394.127 16.7607 394.147 17.2234C394.167 17.7264 393.845 18.0282 393.06 18.2697C392.718 18.3703 392.658 18.3904 392.517 18.4307L392.537 18.5111ZM393.503 17.2234C393.503 17.1027 393.382 17.0021 393.201 17.0021C392.879 17.0021 392.738 17.2033 392.698 17.4649L392.658 17.7466C392.758 17.7264 392.779 17.7063 393.08 17.6258C393.382 17.5252 393.503 17.4045 393.503 17.2234V17.2234ZM405.736 17.1027C405.414 17.2838 405.193 17.4246 404.911 17.6057L404.65 19.3562H403.946L404.368 16.5595L404.972 16.4589L404.952 16.8814C405.153 16.7405 405.434 16.5595 405.676 16.4589L405.736 17.1027ZM405.756 19.2154L405.877 18.6922C406.098 18.7727 406.4 18.8331 406.682 18.8331C407.004 18.8331 407.064 18.7727 407.084 18.5916C407.104 18.4105 407.084 18.3502 406.642 18.149C406.038 17.8472 405.958 17.646 406.018 17.2033C406.098 16.6399 406.32 16.4589 407.084 16.4589C407.346 16.4589 407.708 16.5192 407.95 16.5997L407.849 17.1429C407.628 17.0826 407.306 17.0423 407.104 17.0423C406.823 17.0423 406.742 17.0625 406.702 17.2637C406.682 17.4649 406.722 17.5051 407.044 17.6661C407.708 18.0282 407.829 18.1289 407.768 18.5715C407.668 19.2154 407.467 19.4166 406.662 19.4166C406.4 19.3964 406.018 19.3361 405.756 19.2154V19.2154ZM396.783 19.2154L396.903 18.6922C397.125 18.7727 397.426 18.8331 397.708 18.8331C398.03 18.8331 398.09 18.7727 398.111 18.5916C398.131 18.4105 398.111 18.3502 397.668 18.149C397.064 17.8472 396.984 17.646 397.044 17.2033C397.125 16.6399 397.346 16.4589 398.111 16.4589C398.372 16.4589 398.734 16.5192 398.976 16.5997L398.875 17.1429C398.654 17.0826 398.332 17.0423 398.131 17.0423C397.849 17.0423 397.769 17.0625 397.728 17.2637C397.708 17.4649 397.748 17.5051 398.07 17.6661C398.734 18.0282 398.855 18.1289 398.795 18.5715C398.694 19.2154 398.493 19.4166 397.688 19.4166C397.426 19.3964 397.024 19.3361 396.783 19.2154V19.2154ZM394.408 19.2154L394.529 18.6922C394.75 18.7727 395.052 18.8331 395.334 18.8331C395.656 18.8331 395.716 18.7727 395.736 18.5916C395.756 18.4105 395.736 18.3502 395.294 18.149C394.69 17.8472 394.61 17.646 394.67 17.2033C394.75 16.6399 394.972 16.4589 395.736 16.4589C395.998 16.4589 396.36 16.5192 396.602 16.5997L396.501 17.1429C396.28 17.0826 395.958 17.0423 395.756 17.0423C395.475 17.0423 395.394 17.0625 395.354 17.2637C395.334 17.4649 395.374 17.5051 395.696 17.6661C396.36 18.0282 396.481 18.1289 396.42 18.5715C396.32 19.2154 396.119 19.4166 395.314 19.4166C395.052 19.3964 394.65 19.3361 394.408 19.2154V19.2154ZM384.227 16.5192L384.328 15.7949H385.877L385.978 15.1711H383.724L383 20.0001H383.704L384.127 17.1228H385.636L385.294 19.3562H385.998L386.421 16.5192H384.227ZM401.511 16.5192L401.612 15.7949H403.161L403.261 15.1711H401.008L400.284 20.0001H400.988L401.41 17.1228H402.899L402.557 19.3562H403.261L403.684 16.5192H401.511Z" fill="white"/>
<path d="M450.114 19.5963H456.361L459.71 0.427612H453.463L452.228 7.29222H446.812L448.047 0.427612H441.8L438.451 19.5963H444.698L445.957 12.4229H451.373L450.114 19.5963Z" fill="white"/>
<path d="M463.249 0.403752L461.349 11.0688C461.183 11.9002 461.112 12.7078 461.112 13.4679C461.112 19.1211 466.052 19.9762 469.021 19.9762C475.245 19.9762 477.929 17.9097 478.903 12.3277L480.993 0.380005H474.746L472.964 10.4038C472.394 13.5391 471.99 15.1781 469.663 15.1781C468.142 15.1781 467.406 14.3705 467.406 12.7078C467.406 12.0665 467.501 11.2826 467.691 10.3087L469.496 0.380005H463.249V0.403752Z" fill="white"/>
<path d="M514.01 19.5961H520.257L521.135 14.6555H524.081C529.52 14.6555 532.537 11.7101 532.537 6.34193C532.537 2.56521 529.924 0.403687 525.34 0.403687H517.359L514.01 19.5961V19.5961ZM523.748 9.92863H521.943L522.774 5.41557H524.461C525.839 5.41557 526.575 6.1044 526.575 7.36331C526.575 8.95476 525.506 9.92863 523.748 9.92863Z" fill="white"/>
<path d="M544.675 0C537.881 0 533.82 4.3943 533.82 11.7815C533.82 16.9121 537.05 20 542.466 20C549.259 20 553.321 15.6057 553.321 8.21853C553.345 3.06413 550.114 0 544.675 0V0ZM542.846 15.0356C541.231 15.0356 540.28 13.8717 540.28 11.924C540.28 11.1876 540.352 10.5463 540.494 9.80998C540.969 7.29216 541.777 4.98812 544.318 4.98812C545.934 4.98812 546.884 6.15202 546.884 8.09977C546.884 8.83611 546.812 9.47744 546.67 10.2138C546.195 12.7078 545.387 15.0356 542.846 15.0356V15.0356Z" fill="white"/>
<path d="M575.055 19.5963H581.302L583.772 5.55826H588.475L589.378 0.427612H573.392L572.489 5.55826H577.477L575.055 19.5963V19.5963Z" fill="white"/>
<path d="M564.698 7.50594C562.727 6.88836 561.919 6.62708 561.919 5.70071C561.919 5.08314 562.323 4.34679 563.511 4.34679C564.39 4.34679 565.126 4.84561 565.411 5.58195L570.922 4.08551C570.28 1.37767 567.953 0 563.938 0C556.385 0 555.791 5.05938 555.791 6.60332C555.791 9.73872 557.454 11.6627 561.064 12.6603C562.014 12.9216 563.107 13.2066 563.107 14.2518C563.107 15.0831 562.489 15.6057 561.42 15.6057C560.447 15.6057 559.401 15.0356 559.045 14.038L553.606 15.5107C554.2 18.3611 556.884 19.9763 561.088 19.9763C564.295 19.9763 569.663 19.1211 569.663 13.3254C569.686 10.4276 568.048 8.52732 564.698 7.50594V7.50594Z" fill="white"/>
<path d="M434.96 19.5963L438.333 0.427612H428V19.5963H434.96V19.5963Z" fill="white"/>
<path d="M592.062 0.427612L588.713 19.5963H599.045V0.427612H592.062V0.427612Z" fill="white"/>
<path d="M488.451 13.9429H493.701L494.556 9.12103H489.306L489.9 5.55808H497.24L498.142 0.403687H484.556L481.207 19.5961H487.454L488.451 13.9429Z" fill="white"/>
<path d="M504.817 13.9429H510.09L510.945 9.12103H505.696L506.29 5.55808H513.629L514.532 0.403687H500.945L497.596 19.5961H503.843L504.817 13.9429Z" fill="white"/>
</svg>
