<svg width="600" height="75" viewBox="0 0 600 75" fill="none" xmlns="http://www.w3.org/2000/svg">
<path fill-rule="evenodd" clip-rule="evenodd" d="M246.384 69.1795C246.384 66.1795 244.897 64.5385 239.512 63.6666L239.512 65.7949C243.23 66.4359 244.179 67.4102 244.153 69.2564C244.128 71.0256 242.846 72.8205 238.769 72.8205C235.333 72.8205 233.359 71 232.948 68.4615H230.461C230.769 71.5897 233.384 75 238.692 75C244.102 75 246.384 71.9744 246.384 69.1795ZM231.051 60.4359C231.051 64.2564 234.512 65.3846 237.384 65.641L237.384 63.4871C235.025 63.1795 233.282 62.3334 233.282 60.4615C233.282 58.6153 235.102 57.1794 238.102 57.1794C240.794 57.1794 242.589 58.5128 243.025 60.5897H245.589C245.359 58.359 243.205 55 238.102 55C234.256 55 231.051 57.1025 231.051 60.4359ZM214 55.3847V57.6154H228.051V55.3847H214ZM228.051 63.8975H214V66.1027H228.051V63.8975ZM228.051 72.3847H214V74.6155H228.051V72.3847ZM251.333 55.3847V74.6155H249.102V55.3847H251.333ZM253.461 57.6154V55.3847H257.23C260.845 55.3847 263.153 57.6411 263.153 60.7437C263.153 63.8463 260.717 66.1027 257.23 66.1027H253.461V63.8718H257.23C259.615 63.8718 260.922 62.5898 260.922 60.7437C260.922 58.8975 259.615 57.6154 257.23 57.6154L253.461 57.6154ZM268.076 55.3847H265.845V74.6155H268.076V55.3847ZM280.461 60.7437C280.461 57.6411 278.153 55.3847 274.537 55.3847H270.204V57.6154H274.461C276.845 57.6154 278.102 59.0257 278.102 60.7437C278.102 62.4872 276.845 63.8718 274.461 63.8718H270.204V66.1027H274.537C278.025 66.1027 280.461 63.8463 280.461 60.7437ZM273.871 68.0257L278.23 74.6155H281.025L276.537 68.0257H273.871ZM283.665 55.3847H285.896V74.6155H283.665V55.3847ZM288.28 55.3847V57.6154H302.844V55.3847H288.28ZM296.69 74.6155V59.6924H294.46V74.6155H296.69Z" fill="white"/>
<path d="M57.1361 55L15.3361 72.8C11.8694 74.2667 8.95834 75 6.60278 75C3.93611 75 2.00278 74.0667 0.802778 72.2C0.0472222 71 -0.175 69.4778 0.136111 67.6333C0.447222 65.7889 1.26944 63.8222 2.60278 61.7333C3.71389 60.0444 5.53611 57.8222 8.06945 55.0667C7.18056 56.4889 6.55834 57.9556 6.20278 59.4667C5.53611 62.3111 6.13611 64.4 8.00278 65.7333C8.89167 66.3556 10.1139 66.6667 11.6694 66.6667C12.9139 66.6667 14.3139 66.4667 15.8694 66.0667L57.1361 55Z" fill="white"/>
<path d="M335.278 73.5562L335.296 73.5205L335.314 73.5562C335.528 73.9127 335.688 74.1979 335.955 74.2335C336.205 74.18 336.258 73.9127 336.33 73.6453C336.33 73.6096 336.347 73.5918 336.347 73.5562C336.205 73.5027 336.098 73.3957 336.044 73.3423C336.027 73.3957 336.027 73.4492 336.027 73.4849C336.009 73.6275 335.991 73.6988 335.937 73.6988C335.92 73.6988 335.92 73.6988 335.902 73.6809C335.741 73.574 335.545 73.1462 335.528 73.1284V73.1105V73.0927C335.634 72.8966 335.741 72.6827 335.848 72.4866C335.955 72.2549 336.062 72.0588 336.134 71.9519L335.724 71.738C335.688 71.9162 335.599 72.1658 335.528 72.3797C335.492 72.4866 335.456 72.5758 335.438 72.6471L335.421 72.7362L335.403 72.6471C335.314 72.3262 335.242 71.5419 335.224 71.5062V71.4884H335.884L336.241 71.5062V71.1676L335.866 71.1854H335.207V70.6506H334.814C334.814 70.7041 334.832 70.8467 334.85 70.9358L334.868 71.1676H333.638L333.103 71.1854V71.5241L333.602 71.5062H334.832V71.5241C334.886 72.0054 335.028 72.861 335.135 73.164V73.1818V73.1997C334.939 73.5562 334.458 73.9483 334.315 74.0553C334.387 74.0909 334.511 74.1622 334.654 74.3048C334.743 74.1979 335.1 73.8235 335.278 73.5562Z" fill="white"/>
<path d="M334.761 73.5204V73.1996C334.333 73.36 333.567 73.4848 333.05 73.5204C333.068 73.5917 333.139 73.8056 333.192 73.9482L334.761 73.5204Z" fill="white"/>
<path d="M334.636 71.8627L334.28 71.8805H333.727L333.371 71.8627L333.389 72.1835V72.7183L333.371 73.0748L333.745 73.057H334.28L334.619 73.0748L334.601 72.6648V72.1835L334.636 71.8627ZM334.298 72.7718H333.727V72.2014H334.298V72.7718Z" fill="white"/>
<path d="M335.456 70.8111L335.706 71.1141L336.009 70.9358L335.742 70.6506L335.456 70.8111Z" fill="white"/>
<path d="M336.829 74.911L336.811 74.394V70.6864L336.829 70.1873L336.312 70.2229H333.086L332.551 70.2051L332.569 70.7755V74.4475L332.551 75.0001H332.961V74.7149H336.437V74.911H336.829ZM332.961 74.3584V74.3405V70.5616H336.437V74.3584H332.961Z" fill="white"/>
<path d="M342.319 73.0036C342.426 73.7522 343.068 74.4118 343.388 74.5366C343.478 74.287 343.638 74.1266 343.727 74.0553C342.693 73.6275 342.622 72.7719 342.622 72.7719V72.754L342.64 72.7362C342.889 72.5401 343.175 72.3797 343.299 72.3262L342.889 71.9875C342.497 72.344 341.891 72.7719 341.873 72.7719L341.838 72.8075L341.82 72.7719C341.642 72.4153 341.285 72.148 341.267 72.148L341.214 72.1123L341.267 72.0767C341.374 72.0054 341.659 71.7202 341.659 71.7202L341.677 71.7023H342.568L342.889 71.7202V71.328L342.586 71.3458H340.483L340.073 71.328V71.7202L340.429 71.7023H341.107L341.035 71.7736C340.715 72.1123 340.091 72.3975 339.289 72.6114C339.431 72.7184 339.502 72.8966 339.538 72.9679C340.037 72.8075 340.893 72.344 340.911 72.344H340.929H340.946C341.053 72.3797 341.142 72.5045 341.16 72.5045L341.178 72.5401L341.125 72.5223C340.554 73.1284 339.609 73.3957 339.306 73.4849C339.431 73.5918 339.502 73.7701 339.538 73.8414C340.251 73.6096 341.303 72.8253 341.321 72.8075L341.356 72.7897L341.374 72.8253C341.392 72.8432 341.481 72.9501 341.481 73.0214V73.0392L341.463 73.0571C341.089 73.4849 340.394 74.0731 339.199 74.3405C339.342 74.4831 339.431 74.6613 339.467 74.7505C340.839 74.2514 341.552 73.467 341.552 73.467L341.606 73.3957L341.624 73.4849C341.659 73.8235 341.624 74.0731 341.481 74.2335C341.303 74.4296 341.035 74.4296 340.893 74.4296C341 74.6257 341.071 74.8396 341.089 74.9287C341.232 74.8931 341.748 74.7326 341.873 74.5009C342.052 74.18 342.105 73.6631 341.998 73.1997V73.164L342.319 72.9501V73.0036Z" fill="white"/>
<path d="M339.324 70.5437L339.342 70.8645V71.3993L339.324 71.7023H339.77V70.9358H343.175V71.6488H343.603L343.585 71.2923V70.8645L343.603 70.5437L343.228 70.5615H341.767V70.5258C341.731 70.3298 341.642 70.098 341.624 70.0089L341.143 70.098C341.214 70.2941 341.25 70.508 341.25 70.5258V70.5793H339.699L339.324 70.5437Z" fill="white"/>
<path d="M347.72 74.1978C347.72 74.3761 347.72 74.5365 347.827 74.6613C347.987 74.8217 348.362 74.8752 349.021 74.8396C350.216 74.7861 350.251 74.6969 350.447 74.1444C350.465 74.1087 350.465 74.0731 350.483 74.0374C350.287 73.9483 350.144 73.8413 350.073 73.7879C349.966 74.4474 349.645 74.4474 349.057 74.4652H348.986C348.95 74.4652 348.897 74.4652 348.861 74.4652C348.79 74.4652 348.736 74.4652 348.683 74.4652C348.344 74.4652 348.13 74.3761 348.13 73.9126V72.2371L348.683 72.0053V73.4492L348.665 73.9305H349.093L349.075 73.4492V71.8806L349.716 71.6666V72.6827C349.681 72.9857 349.592 73.0748 349.289 73.0748C349.396 73.2353 349.431 73.4314 349.449 73.5205C349.574 73.5027 350.055 73.4314 350.091 73.057C350.109 72.8609 350.126 71.2923 350.126 71.0606C350.055 71.0784 349.877 71.1675 349.752 71.221L349.075 71.4884V70.615L349.093 70.0802H348.665L348.683 70.615V71.6132L348.13 71.7914V71.221L348.148 70.7932H347.684L347.702 71.221V71.9875H347.667C347.488 72.041 347.274 72.0945 347.185 72.1123L347.292 72.5401C347.364 72.5044 347.506 72.451 347.631 72.3975L347.684 72.3618V74.1087C347.72 74.1444 347.72 74.18 347.72 74.1978Z" fill="white"/>
<path d="M347.274 73.9304V73.4848L346.74 73.7343V71.9875H346.9C347.007 71.9875 347.167 72.0053 347.239 72.0053V71.5597C347.167 71.5597 347.007 71.5775 346.918 71.5775H346.74V70.704C346.74 70.6149 346.757 70.4188 346.757 70.3297H346.33C346.33 70.401 346.348 70.5793 346.348 70.704V71.5953H346.187C346.027 71.5953 345.938 71.5953 345.813 71.5775V72.0053C345.884 72.0053 346.062 71.9875 346.187 71.9875H346.365V73.8413L346.348 73.8591C346.205 73.9304 345.991 73.9839 345.831 74.0017C345.866 74.0908 345.955 74.3048 345.991 74.5721C346.098 74.4474 346.508 74.2156 347.274 73.9304Z" fill="white"/>
<path d="M353.995 74.0197C353.995 73.8414 353.977 73.6275 353.977 73.5384L353.335 73.8414V72.4688H353.585L353.834 72.4867V72.041L353.567 72.0589H353.335V70.8467H353.692L353.906 70.8646V70.4368L353.674 70.4546H352.711L352.408 70.4368V70.8646L352.729 70.8467H352.979V72.0589H352.693L352.426 72.0232V72.4688L352.676 72.451H352.979V73.9305H352.961C352.64 74.0731 352.39 74.1266 352.319 74.1266L352.444 74.6614C353.228 74.3049 353.888 74.0553 353.995 74.0197Z" fill="white"/>
<path d="M356.918 74.8752V74.4474L356.508 74.4652H355.581V73.8235H356.258L356.633 73.8413V73.4313L356.241 73.4491H355.581V72.8431H356.223L356.651 72.8609L356.633 72.5222V70.7041L356.651 70.2584L356.205 70.2762H354.601L354.191 70.2584L354.209 70.7575V72.4866L354.191 72.8787L354.619 72.8609H355.225V73.467H354.619L354.262 73.4491V73.8413L354.636 73.8235H355.225V74.4652H354.191L353.799 74.4474V74.8752L354.191 74.8573H356.455L356.918 74.8752ZM355.599 70.6328H356.258V71.3814H355.599V70.6328ZM355.599 71.7201H356.258V72.4866H355.599V71.7201ZM355.225 72.4866H354.601V71.7201H355.225V72.4866ZM355.225 71.3636H354.601V70.6149H355.225V71.3636Z" fill="white"/>
<path d="M321 55H329.984V67.8699H321V55ZM328.683 56.3012H322.301V66.5686H328.683V56.3012Z" fill="#FFCC00"/>
<path d="M335.884 60.7754H335.332C334.601 59.7416 333.87 58.7077 333.139 57.549V60.7754H332.515V56.2656H333.068C333.799 57.2995 334.529 58.3155 335.242 59.4742H335.26V56.2656H335.884V60.7754Z" fill="white"/>
<path d="M337.346 58.9929C337.524 58.4047 337.702 57.8521 337.863 57.1569H337.88C338.059 57.8521 338.219 58.4047 338.38 58.9929H337.346ZM337.649 56.2656L336.098 60.7576H336.757L337.15 59.5277H338.504L338.861 60.7576H339.716L338.29 56.2656H337.649Z" fill="white"/>
<path d="M340.447 60.7754V56.8717H339.271V56.2656H342.408V56.8717H341.214V60.7754H340.447Z" fill="white"/>
<path d="M343.424 56.2656H342.658V60.7576H343.424V56.2656Z" fill="white"/>
<path d="M345.795 60.205C344.993 60.205 344.708 59.3138 344.708 58.4581C344.708 57.6204 345.029 56.836 345.795 56.836C346.561 56.836 346.882 57.6204 346.882 58.4581C346.882 59.3138 346.597 60.205 345.795 60.205ZM345.795 60.8467C346.971 60.8467 347.702 59.795 347.702 58.4581C347.702 57.1926 346.9 56.1943 345.795 56.1943C344.69 56.1943 343.888 57.1926 343.888 58.4581C343.888 59.795 344.619 60.8467 345.795 60.8467Z" fill="white"/>
<path d="M351.535 60.7754H350.982C350.251 59.7416 349.52 58.7077 348.79 57.549V60.7754H348.166V56.2656H348.718C349.449 57.2995 350.18 58.3155 350.893 59.4742H350.911V56.2656H351.535V60.7754Z" fill="white"/>
<path d="M353.014 58.9929C353.192 58.4047 353.371 57.8521 353.531 57.1569H353.549C353.727 57.8521 353.888 58.4047 354.066 58.9929H353.014ZM353.299 56.2656L351.749 60.7576H352.426L352.818 59.5277H354.173L354.529 60.7576H355.385L353.959 56.2656H353.299Z" fill="white"/>
<path d="M355.599 56.2656H356.365V60.1694H357.898V60.7754H355.599V56.2656Z" fill="white"/>
<path d="M335.403 64.5364V66.3903C334.993 66.5507 334.565 66.6577 334.12 66.6577C332.8 66.6577 331.963 65.6238 331.963 64.3047C331.963 63.0748 332.8 62.0052 334.155 62.0052C334.565 62.0052 334.993 62.1657 335.243 62.3439L334.993 62.8787C334.779 62.7539 334.458 62.647 334.173 62.647C333.353 62.647 332.783 63.2887 332.783 64.3225C332.783 65.3921 333.424 66.0159 334.084 66.0159C334.298 66.0159 334.458 65.9981 334.619 65.909V64.5186H335.403V64.5364Z" fill="white"/>
<path d="M338.166 62.7005H336.882V63.9305H338.148V64.5365H336.882V65.9982H338.397V66.5865H336.116V62.0945H338.166V62.7005Z" fill="white"/>
<path d="M340.536 66.0339C339.734 66.0339 339.449 65.1426 339.449 64.287C339.449 63.467 339.77 62.6649 340.536 62.6649C341.303 62.6649 341.624 63.4492 341.624 64.287C341.624 65.1426 341.339 66.0339 340.536 66.0339ZM340.536 66.6756C341.713 66.6756 342.444 65.6239 342.444 64.287C342.444 63.0214 341.642 62.0232 340.536 62.0232C339.431 62.0232 338.629 63.0214 338.629 64.287C338.629 65.6239 339.36 66.6756 340.536 66.6756Z" fill="white"/>
<path d="M346.151 64.5364V66.3903C345.741 66.5507 345.314 66.6577 344.868 66.6577C343.549 66.6577 342.711 65.6238 342.711 64.3047C342.711 63.0748 343.549 62.0052 344.904 62.0052C345.314 62.0052 345.741 62.1657 345.991 62.3439L345.741 62.8787C345.528 62.7539 345.207 62.647 344.922 62.647C344.102 62.647 343.531 63.2887 343.531 64.3225C343.531 65.3921 344.173 66.0159 344.832 66.0159C345.046 66.0159 345.207 65.9981 345.367 65.909V64.5186H346.151V64.5364Z" fill="white"/>
<path d="M347.631 62.7005H347.97C348.433 62.7005 348.683 62.9679 348.683 63.4314C348.683 64.0374 348.308 64.3048 347.952 64.3226C347.881 64.3226 347.702 64.3405 347.631 64.3405V62.7005ZM349.592 66.5865L348.683 64.7148C349.182 64.4474 349.467 63.9127 349.467 63.3779C349.467 62.5045 348.932 62.0767 348.077 62.0767H346.882V66.5686H347.649V64.8752H347.987H348.005L348.736 66.5686H349.592V66.5865Z" fill="white"/>
<path d="M350.857 64.8218C351.036 64.2335 351.214 63.6809 351.374 62.9857H351.392C351.57 63.6809 351.731 64.2335 351.891 64.8218H350.857ZM351.16 62.0945L349.61 66.5865H350.287L350.679 65.3565H352.034L352.39 66.5865H353.246L351.82 62.0945H351.16Z" fill="white"/>
<path d="M354.244 66.5865H353.478V62.0945H354.672C355.528 62.0945 356.062 62.5223 356.062 63.3957C356.062 64.1622 355.51 64.8931 354.583 64.8931H354.226V64.3405C354.262 64.3405 354.476 64.3226 354.565 64.3226C354.939 64.3048 355.296 64.0374 355.296 63.4314C355.296 62.9679 355.046 62.7005 354.583 62.7005H354.226V66.5865H354.244Z" fill="white"/>
<path d="M359.645 66.5865H358.879V64.4296H357.275V66.5865H356.508V62.0945H357.275V63.8235H358.879V62.1123H359.645V66.5865Z" fill="white"/>
<path d="M361.16 62.0945H360.394V66.5865H361.16V62.0945Z" fill="white"/>
<path d="M364.618 62.9143C364.44 62.8074 364.119 62.6648 363.834 62.6648C363.05 62.6648 362.479 63.3065 362.479 64.3404C362.479 65.4099 363.103 66.0338 363.852 66.0338C364.155 66.0338 364.422 65.9446 364.618 65.802L364.832 66.3546C364.601 66.515 364.191 66.6577 363.816 66.6577C362.497 66.6577 361.659 65.6238 361.659 64.3047C361.659 63.0748 362.479 62.0052 363.834 62.0052C364.226 62.0052 364.601 62.1657 364.868 62.3439L364.618 62.9143Z" fill="white"/>
<path d="M86.9723 65.2867C87.9151 65.3598 88.7348 65.7601 89.4352 66.4835C90.1318 67.2109 90.482 68.2076 90.482 69.4776C90.482 71.0362 89.9663 72.2792 88.9311 73.2067C87.8959 74.1303 86.4104 74.5959 84.467 74.5959H75V56.3623H84.4439C86.1141 56.3623 87.4495 56.8164 88.4577 57.7246C89.466 58.6329 89.9663 59.8374 89.9663 61.3421C89.9663 62.4851 89.6507 63.3933 89.0157 64.0629C88.3808 64.7325 87.6996 65.1058 86.9761 65.1789V65.2867H86.9723ZM79.491 63.8974H83.4087C84.0783 63.8974 84.6132 63.7127 85.0134 63.3394C85.4137 62.9661 85.6138 62.4735 85.6138 61.8578C85.6138 61.2959 85.4175 60.8418 85.0288 60.4955C84.6401 60.1491 84.1553 59.9798 83.5742 59.9798H79.491V63.8974ZM83.6819 70.9746C84.39 70.9746 84.9365 70.7937 85.329 70.432C85.7177 70.0702 85.914 69.5699 85.914 68.935C85.914 68.3346 85.7138 67.8613 85.3136 67.5072C84.9134 67.1532 84.3977 66.9761 83.7627 66.9761H79.491V70.9746H83.6819ZM106.072 74.5921H101.719V73.2875C100.63 74.4304 99.2331 75 97.5283 75C95.9312 75 94.6497 74.4766 93.6761 73.4337C92.7063 72.3908 92.2214 71.0169 92.2214 69.3121V60.9342H96.547V68.3885C96.547 69.1851 96.7663 69.8355 97.2012 70.3358C97.6361 70.8361 98.1979 71.0824 98.8868 71.0824C99.7758 71.0824 100.468 70.7706 100.969 70.1434C101.469 69.5161 101.715 68.5617 101.715 67.2725V60.9342H106.068V74.5921H106.072ZM119.479 74.5921H107.954V73.7724L113.372 64.39H108.088V60.9342H119.414V61.7539L113.995 71.1362H119.479V74.5921ZM132.887 74.5921H121.361V73.7724L126.78 64.39H121.492V60.9342H132.818V61.7539L127.399 71.1362H132.883V74.5921H132.887ZM139.36 64.1437H147.234V68.0614H139.36V74.5921H134.869V56.3623H147.957V60.3069H139.36V64.1437ZM179.133 68.8772H169.119C169.377 70.5705 170.643 71.5172 172.56 71.5172C174.068 71.5172 175.558 70.9246 176.674 70.0664L178.344 72.9604C176.816 74.2727 174.834 75 172.56 75C167.98 75 164.848 72.2099 164.848 67.7612C164.848 65.6561 165.548 63.9244 166.941 62.5621C168.338 61.1997 170.051 60.5224 172.083 60.5224C174.061 60.5224 175.719 61.1843 177.062 62.5082C178.405 63.832 179.094 65.583 179.129 67.7612V68.8772H179.133ZM170.316 64.6325C169.774 65.0135 169.4 65.5407 169.2 66.2103H174.834C174.634 65.5022 174.292 64.9673 173.799 64.6055C173.31 64.2438 172.737 64.0629 172.086 64.0629C171.451 64.0629 170.863 64.2515 170.316 64.6325ZM163.212 68.8772H153.199C153.457 70.5705 154.723 71.5172 156.639 71.5172C158.148 71.5172 159.637 70.9246 160.753 70.0664L162.423 72.9604C160.895 74.2727 158.914 75 156.639 75C152.06 75 148.927 72.2099 148.927 67.7612C148.927 65.6561 149.627 63.9244 151.021 62.5621C152.417 61.1997 154.13 60.5224 156.162 60.5224C158.14 60.5224 159.799 61.1843 161.142 62.5082C162.485 63.832 163.174 65.583 163.208 67.7612V68.8772H163.212ZM154.396 64.6325C153.853 65.0135 153.48 65.5407 153.28 66.2103H158.914C158.713 65.5022 158.371 64.9673 157.878 64.6055C157.39 64.2438 156.816 64.0629 156.166 64.0629C155.527 64.0629 154.938 64.2515 154.396 64.6325ZM195.977 74.5921H191.625V73.503C190.516 74.4997 189.104 75 187.38 75C185.529 75 183.955 74.3227 182.658 72.9719C181.361 71.6211 180.711 69.8817 180.711 67.7612C180.711 65.6561 181.361 63.9244 182.658 62.5621C183.955 61.1997 185.529 60.5224 187.38 60.5224C189.104 60.5224 190.52 61.0227 191.625 62.0194V55H195.977V74.5921ZM190.632 70.3088C191.294 69.6469 191.625 68.8003 191.625 67.7651C191.625 66.7491 191.294 65.9063 190.632 65.2328C189.97 64.5632 189.185 64.2246 188.277 64.2246C187.314 64.2246 186.526 64.5555 185.91 65.2174C185.294 65.8794 184.986 66.726 184.986 67.7612C184.986 68.8118 185.294 69.6662 185.91 70.3204C186.526 70.9746 187.314 71.3017 188.277 71.3017C189.185 71.3017 189.97 70.9708 190.632 70.3088Z" fill="white"/>
<path d="M396.601 68.0985C390.323 68.0985 385.212 68.1589 385.212 68.2193C385.212 68.2998 390.303 68.34 396.601 68.34C402.899 68.34 407.989 68.2796 407.989 68.2193C407.989 68.1589 402.878 68.0985 396.601 68.0985Z" fill="white"/>
<path d="M404.166 65.2214H403.542L401.007 56.7304L398.371 65.2214H397.748L395.353 55.8853H395.776L398.07 64.8189H398.09L400.846 55.9256H401.208L403.864 64.8189L406.299 55.8853H406.721L404.166 65.2214ZM405.736 55C405.474 55 405.253 55.1811 405.152 55.4628L403.703 61.2978L401.872 55H400.424C400.182 55 399.961 55.161 399.84 55.4628L398.15 61.2978L396.742 55.4829V55.4628C396.641 55.1811 396.42 55 396.158 55H393.985L396.963 66.167L397.003 66.328H399.096L400.947 60.2113L402.798 66.328H404.89L407.929 55.0201H405.736V55ZM392.516 60.9759C392.516 62.2234 392.536 63.5312 391.53 64.5372C390.927 65.1409 390.021 65.4829 388.955 65.4829H386.198V55.8652H388.955C390.021 55.8652 390.907 56.1871 391.53 56.8109C392.536 57.8169 392.536 59.0242 392.516 60.2918V60.9759ZM392.335 56.1066C391.611 55.3823 390.564 55 389.317 55H385.172V66.3079H389.317C390.564 66.3079 391.611 65.9256 392.335 65.2012C393.522 64.0141 393.502 62.4849 393.502 61.0161V60.2113C393.502 58.7022 393.502 57.2938 392.335 56.1066ZM390.544 63.4105C390.202 63.833 389.76 64.0141 389.116 64.0141H387.707V57.3139H389.116C389.76 57.3139 390.202 57.495 390.544 57.9175C390.886 58.34 390.967 59.004 390.967 60.6137C390.947 62.2234 390.907 62.9678 390.544 63.4105ZM391.249 57.0926C390.705 56.5493 389.921 56.2676 388.975 56.2676H386.601V65.0403H388.955C389.921 65.0403 390.705 64.7586 391.228 64.2153C392.114 63.33 392.114 62.1831 392.094 60.9557V60.2716C392.114 59.0443 392.134 57.9779 391.249 57.0926Z" fill="white"/>
<path d="M386.763 73.7123L387.205 70.7748L387.93 70.6742L387.809 71.4991H388.533L388.453 72.1027H387.728L387.487 73.6721C387.467 73.7727 387.507 73.8129 387.628 73.8129C387.769 73.8129 387.95 73.7526 388.111 73.6922L388.272 74.1751C388.03 74.2958 387.728 74.3964 387.386 74.3964C386.924 74.3964 386.702 74.1349 386.763 73.7123ZM408.251 73.7123L408.694 70.7748L409.418 70.6742L409.298 71.4991H410.022L409.941 72.1027H409.217L408.976 73.6721C408.956 73.7727 408.996 73.8129 409.117 73.8129C409.257 73.8129 409.438 73.7526 409.599 73.6922L409.76 74.1751C409.519 74.2958 409.217 74.3964 408.875 74.3964C408.412 74.3964 408.191 74.1349 408.251 73.7123ZM390.686 72.324C390.686 72.3039 390.706 72.1228 390.525 72.1228C390.344 72.1228 389.942 72.3039 389.68 72.4448L389.398 74.3361H388.694L389.117 71.5393L389.72 71.4387V71.7808C390.082 71.5796 390.525 71.4186 390.867 71.4186C391.27 71.4186 391.41 71.6802 391.431 71.982C391.431 72.1027 391.431 72.1631 391.41 72.2637L391.109 74.316H390.404L390.686 72.324ZM392.537 73.5111C392.517 73.6721 392.497 73.8129 392.758 73.8129C393.06 73.8129 393.483 73.6721 393.845 73.491L394.006 74.0343C393.664 74.2355 393.141 74.4166 392.658 74.4166C391.893 74.4166 391.732 73.994 391.813 73.4105L391.934 72.5454C392.034 71.8814 392.336 71.479 393.201 71.479C393.744 71.479 394.127 71.7607 394.147 72.2234C394.167 72.7264 393.845 73.0282 393.06 73.2697C392.718 73.3703 392.658 73.3904 392.517 73.4307L392.537 73.5111ZM393.503 72.2234C393.503 72.1027 393.382 72.0021 393.201 72.0021C392.879 72.0021 392.738 72.2033 392.698 72.4649L392.658 72.7466C392.758 72.7264 392.779 72.7063 393.08 72.6258C393.382 72.5252 393.503 72.4045 393.503 72.2234ZM405.736 72.1027C405.414 72.2838 405.193 72.4246 404.911 72.6057L404.65 74.3562H403.946L404.368 71.5595L404.972 71.4589L404.952 71.8814C405.153 71.7405 405.434 71.5595 405.676 71.4589L405.736 72.1027ZM405.756 74.2154L405.877 73.6922C406.098 73.7727 406.4 73.8331 406.682 73.8331C407.004 73.8331 407.064 73.7727 407.084 73.5916C407.104 73.4105 407.084 73.3502 406.642 73.149C406.038 72.8472 405.958 72.646 406.018 72.2033C406.098 71.6399 406.32 71.4589 407.084 71.4589C407.346 71.4589 407.708 71.5192 407.95 71.5997L407.849 72.1429C407.628 72.0826 407.306 72.0423 407.104 72.0423C406.823 72.0423 406.742 72.0625 406.702 72.2637C406.682 72.4649 406.722 72.5051 407.044 72.6661C407.708 73.0282 407.829 73.1289 407.768 73.5715C407.668 74.2154 407.467 74.4166 406.662 74.4166C406.4 74.3964 406.018 74.3361 405.756 74.2154ZM396.783 74.2154L396.903 73.6922C397.125 73.7727 397.426 73.8331 397.708 73.8331C398.03 73.8331 398.09 73.7727 398.111 73.5916C398.131 73.4105 398.111 73.3502 397.668 73.149C397.064 72.8472 396.984 72.646 397.044 72.2033C397.125 71.6399 397.346 71.4589 398.111 71.4589C398.372 71.4589 398.734 71.5192 398.976 71.5997L398.875 72.1429C398.654 72.0826 398.332 72.0423 398.131 72.0423C397.849 72.0423 397.769 72.0625 397.728 72.2637C397.708 72.4649 397.748 72.5051 398.07 72.6661C398.734 73.0282 398.855 73.1289 398.795 73.5715C398.694 74.2154 398.493 74.4166 397.688 74.4166C397.426 74.3964 397.024 74.3361 396.783 74.2154ZM394.408 74.2154L394.529 73.6922C394.75 73.7727 395.052 73.8331 395.334 73.8331C395.656 73.8331 395.716 73.7727 395.736 73.5916C395.756 73.4105 395.736 73.3502 395.294 73.149C394.69 72.8472 394.61 72.646 394.67 72.2033C394.75 71.6399 394.972 71.4589 395.736 71.4589C395.998 71.4589 396.36 71.5192 396.602 71.5997L396.501 72.1429C396.28 72.0826 395.958 72.0423 395.756 72.0423C395.475 72.0423 395.394 72.0625 395.354 72.2637C395.334 72.4649 395.374 72.5051 395.696 72.6661C396.36 73.0282 396.481 73.1289 396.42 73.5715C396.32 74.2154 396.119 74.4166 395.314 74.4166C395.052 74.3964 394.65 74.3361 394.408 74.2154ZM384.227 71.5192L384.328 70.7949H385.877L385.978 70.1711H383.724L383 75.0001H383.704L384.127 72.1228H385.636L385.294 74.3562H385.998L386.421 71.5192H384.227ZM401.511 71.5192L401.612 70.7949H403.161L403.261 70.1711H401.008L400.284 75.0001H400.988L401.41 72.1228H402.899L402.557 74.3562H403.261L403.684 71.5192H401.511Z" fill="white"/>
<path d="M450.114 74.5963H456.361L459.71 55.4276H453.463L452.228 62.2922H446.812L448.047 55.4276H441.8L438.451 74.5963H444.698L445.957 67.4229H451.373L450.114 74.5963Z" fill="white"/>
<path d="M463.249 55.4038L461.349 66.0688C461.183 66.9002 461.112 67.7078 461.112 68.4679C461.112 74.1211 466.052 74.9762 469.021 74.9762C475.245 74.9762 477.929 72.9097 478.903 67.3277L480.993 55.38H474.746L472.964 65.4038C472.394 68.5391 471.99 70.1781 469.663 70.1781C468.142 70.1781 467.406 69.3705 467.406 67.7078C467.406 67.0665 467.501 66.2826 467.691 65.3087L469.496 55.38H463.249V55.4038Z" fill="white"/>
<path d="M514.01 74.5961H520.257L521.135 69.6555H524.081C529.52 69.6555 532.537 66.7101 532.537 61.3419C532.537 57.5652 529.924 55.4037 525.34 55.4037H517.359L514.01 74.5961ZM523.748 64.9286H521.943L522.774 60.4156H524.461C525.839 60.4156 526.575 61.1044 526.575 62.3633C526.575 63.9548 525.506 64.9286 523.748 64.9286Z" fill="white"/>
<path d="M544.675 55C537.881 55 533.82 59.3943 533.82 66.7815C533.82 71.9121 537.05 75 542.466 75C549.259 75 553.321 70.6057 553.321 63.2185C553.345 58.0641 550.114 55 544.675 55ZM542.846 70.0356C541.231 70.0356 540.28 68.8717 540.28 66.924C540.28 66.1876 540.352 65.5463 540.494 64.81C540.969 62.2922 541.777 59.9881 544.318 59.9881C545.934 59.9881 546.884 61.152 546.884 63.0998C546.884 63.8361 546.812 64.4774 546.67 65.2138C546.195 67.7078 545.387 70.0356 542.846 70.0356Z" fill="white"/>
<path d="M575.055 74.5963H581.302L583.772 60.5583H588.475L589.378 55.4276H573.392L572.489 60.5583H577.477L575.055 74.5963Z" fill="white"/>
<path d="M564.698 62.5059C562.727 61.8884 561.919 61.6271 561.919 60.7007C561.919 60.0831 562.323 59.3468 563.511 59.3468C564.39 59.3468 565.126 59.8456 565.411 60.5819L570.922 59.0855C570.28 56.3777 567.953 55 563.938 55C556.385 55 555.791 60.0594 555.791 61.6033C555.791 64.7387 557.454 66.6627 561.064 67.6603C562.014 67.9216 563.107 68.2066 563.107 69.2518C563.107 70.0831 562.489 70.6057 561.42 70.6057C560.447 70.6057 559.401 70.0356 559.045 69.038L553.606 70.5107C554.2 73.3611 556.884 74.9763 561.088 74.9763C564.295 74.9763 569.663 74.1211 569.663 68.3254C569.686 65.4276 568.048 63.5273 564.698 62.5059Z" fill="white"/>
<path d="M434.96 74.5963L438.333 55.4276H428V74.5963H434.96Z" fill="white"/>
<path d="M592.062 55.4276L588.713 74.5963H599.045V55.4276H592.062Z" fill="white"/>
<path d="M488.451 68.9429H493.701L494.556 64.121H489.306L489.9 60.5581H497.24L498.142 55.4037H484.556L481.207 74.5961H487.454L488.451 68.9429Z" fill="white"/>
<path d="M504.817 68.9429H510.09L510.945 64.121H505.696L506.29 60.5581H513.629L514.532 55.4037H500.945L497.596 74.5961H503.843L504.817 68.9429Z" fill="white"/>
<path d="M2.31179 16L3.15199 13.4893H6.98011L7.82528 16H9.79403L6.20455 5.81818H3.92756L0.34304 16H2.31179ZM3.64915 12.0078L5.02628 7.90625H5.10582L6.48295 12.0078H3.64915ZM17.5044 8.61719H19.2793C19.2445 6.89702 17.7779 5.67898 15.6103 5.67898C13.4725 5.67898 11.8667 6.8821 11.8716 8.68182C11.8716 10.1435 12.9107 10.9837 14.5861 11.4162L15.7445 11.7145C16.8432 11.9929 17.5691 12.3359 17.574 13.1264C17.5691 13.9964 16.7438 14.5781 15.5407 14.5781C14.3873 14.5781 13.4924 14.0611 13.4178 12.9922H11.6032C11.6777 15.0156 13.1841 16.1541 15.5556 16.1541C17.9966 16.1541 19.4135 14.9361 19.4185 13.1413C19.4135 11.3764 17.9569 10.571 16.4256 10.2081L15.4711 9.96946C14.6358 9.7706 13.731 9.41761 13.7409 8.56747C13.7459 7.80185 14.432 7.24006 15.5854 7.24006C16.6841 7.24006 17.41 7.75213 17.5044 8.61719ZM26.5355 16H28.38V11.6747H32.6108V10.1286H28.38V7.36435H33.0582V5.81818H26.5355V16ZM35.7386 16H42.4006V14.4538H37.5831V11.6747H42.0178V10.1286H37.5831V7.36435H42.3608V5.81818H35.7386V16ZM46.5501 16L47.3903 13.4893H51.2184L52.0636 16H54.0323L50.4428 5.81818H48.1658L44.5813 16H46.5501ZM47.8874 12.0078L49.2646 7.90625H49.3441L50.7212 12.0078H47.8874ZM54.6955 7.36435H57.8425V16H59.6721V7.36435H62.8191V5.81818H54.6955V7.36435ZM71.8034 5.81818V12.3161C71.8034 13.5938 70.9135 14.5085 69.5165 14.5085C68.1145 14.5085 67.2296 13.5938 67.2296 12.3161V5.81818H65.3851V12.4702C65.3851 14.6577 67.0257 16.1541 69.5165 16.1541C71.9973 16.1541 73.6479 14.6577 73.6479 12.4702V5.81818H71.8034ZM76.6527 16H78.4972V12.2713H80.3764L82.375 16H84.4332L82.2308 11.9631C83.429 11.4808 84.0604 10.4567 84.0604 9.07457C84.0604 7.13068 82.8075 5.81818 80.4709 5.81818H76.6527V16ZM78.4972 10.7401V7.35938H80.1875C81.5646 7.35938 82.1811 7.99077 82.1811 9.07457C82.1811 10.1584 81.5646 10.7401 80.1974 10.7401H78.4972ZM86.7582 16H93.4201V14.4538H88.6026V11.6747H93.0373V10.1286H88.6026V7.36435H93.3803V5.81818H86.7582V16ZM99.7124 16C102.815 16 104.654 14.081 104.654 10.8991C104.654 7.72727 102.815 5.81818 99.782 5.81818H96.2621V16H99.7124ZM98.1065 14.4041V7.41406H99.6776C101.746 7.41406 102.825 8.56747 102.825 10.8991C102.825 13.2408 101.746 14.4041 99.6229 14.4041H98.1065ZM113.724 5.81818H111.879V16H113.724V5.81818ZM125.088 5.81818H123.254V12.7585H123.164L118.372 5.81818H116.721V16H118.566V9.06463H118.65L123.448 16H125.088V5.81818Z" fill="#EFEDE8" fill-opacity="0.65"/>
</svg>
